<svg width="55" height="14" viewBox="0 0 55 14" fill="none" xmlns="http://www.w3.org/2000/svg">
<path d="M0.432617 1.35707H2.50714V11.3396H6.08347V13.31H0.441248L0.432617 1.35707Z" fill="#010084"/>
<path d="M10.8882 4.35173C11.9874 4.33794 13.0293 4.83903 13.7052 5.70579V4.52975H15.6407V13.3274H13.7052V12.1512C13.0292 13.0181 11.9874 13.5192 10.8882 13.5054C8.47516 13.5054 6.64355 11.4437 6.64355 8.92642C6.64344 6.40899 8.47505 4.35173 10.8882 4.35173ZM11.24 6.11383C9.67306 6.11383 8.63558 7.34649 8.63558 8.92631C8.63558 10.5063 9.69033 11.7431 11.24 11.7431C12.7894 11.7431 13.8441 10.5105 13.8441 8.92631C13.8441 7.34211 12.8066 6.11383 11.24 6.11383Z" fill="#010084"/>
<path d="M17.1467 11.7996L21.7603 6.28748H17.216V4.52975H24.2603V6.07919L19.6642 11.5695H24.3645V13.3273H17.1467V11.7996Z" fill="#010084"/>
<path d="M29.2864 4.35173C30.3852 4.33794 31.4275 4.83903 32.103 5.70579V4.52975H34.0389V13.3274H32.103V12.1512C31.4275 13.0181 30.3852 13.5192 29.2864 13.5054C26.8734 13.5054 25.0459 11.4437 25.0459 8.92642C25.0459 6.40899 26.8734 4.35173 29.2864 4.35173ZM29.6378 6.11383C28.0709 6.11383 27.0338 7.34649 27.0338 8.92631C27.0338 10.5063 28.0884 11.7431 29.6378 11.7431C31.1872 11.7431 32.2419 10.5105 32.2419 8.92631C32.2419 7.34211 31.2048 6.11383 29.6378 6.11383Z" fill="#010084"/>
<path d="M39.5679 4.35173C40.6658 4.33726 41.7069 4.83858 42.3805 5.70578V0.64962H44.316V13.3274H42.3805V12.1512C41.7069 13.0185 40.6658 13.5197 39.5679 13.5054C37.1548 13.5054 35.3232 11.4437 35.3232 8.92642C35.3232 6.40899 37.1548 4.35173 39.5679 4.35173ZM39.9195 6.11383C38.3525 6.11383 37.3154 7.34648 37.3154 8.92631C37.3154 10.5062 38.3745 11.743 39.9195 11.743C41.4648 11.743 42.5235 10.5105 42.5235 8.92631C42.5235 7.34211 41.4863 6.11383 39.9195 6.11383Z" fill="#010084"/>
<path d="M49.8457 4.35173C50.9436 4.33727 51.9849 4.83858 52.6583 5.70579V4.52974H54.5897V13.3274H52.6498V12.1512C51.9761 13.0185 50.9351 13.5197 49.8372 13.5054C47.4241 13.5054 45.5925 11.4437 45.5925 8.92642C45.5924 6.40899 47.4326 4.35173 49.8457 4.35173ZM50.1975 6.11383C48.6306 6.11383 47.5932 7.34648 47.5932 8.92631C47.5932 10.5062 48.6523 11.743 50.1975 11.743C51.7424 11.743 52.8016 10.5105 52.8016 8.92631C52.8016 7.34211 51.7641 6.11383 50.1975 6.11383Z" fill="#010084"/>
</svg>
