<svg width="30" height="24" viewBox="0 0 30 24" fill="none" xmlns="http://www.w3.org/2000/svg">
<path d="M14.787 24C14.5772 24.0014 14.3705 23.9478 14.1879 23.8443C12.6243 22.9396 1.04356 15.6785 0.606267 15.4567C0.273427 15.3014 0.0461169 14.9833 0.007123 14.6181V4.43339C-0.00154231 4.0532 0.186464 3.69545 0.504295 3.48686L0.588163 3.43889C1.70846 2.74396 5.45884 0.455393 6.05195 0.125802C6.18812 0.0450287 6.34317 0.00170211 6.50146 0C6.64986 0.00170211 6.79562 0.0386844 6.92684 0.107852C6.92684 0.107852 12.1749 3.52879 12.9777 3.83425C13.5409 4.09297 14.1553 4.22202 14.775 4.21165C15.4773 4.22635 16.1713 4.05691 16.788 3.72036C17.5728 3.30705 22.5872 0.125802 22.6412 0.125802C22.7676 0.0493613 22.9129 0.010058 23.0606 0.0119148C23.219 0.0126885 23.3742 0.0561698 23.5099 0.137717C24.1928 0.515122 28.8419 3.3609 29.0396 3.48671C29.3666 3.684 29.5648 4.03943 29.5609 4.42132V14.606C29.5243 14.9721 29.2962 15.2913 28.9618 15.4447C28.5244 15.6844 16.9798 22.9454 15.3862 23.8321C15.2047 23.9399 14.998 23.9978 14.787 24Z" fill="url(#paint0_linear_3065_1774)"/>
<path d="M14.7271 24H14.7869C14.9968 24.0014 15.2033 23.9477 15.3859 23.8441C16.9495 22.9395 28.5242 15.6783 28.9615 15.4567C29.2959 15.3032 29.524 14.984 29.5605 14.6181V4.43338C29.5625 4.261 29.5235 4.09048 29.4466 3.93621L14.7271 12.0179V24Z" fill="url(#paint1_linear_3065_1774)"/>
<path d="M14.7271 24L14.5371 23.9753C14.282 23.9231 14.169 23.8345 13.9884 23.7322C12.4414 22.8373 0.994952 15.6543 0.562169 15.4349C0.229048 15.265 0.0363083 14.9365 2.67029e-05 14.5743V4.49811C-0.00196362 4.32756 0.036768 4.15901 0.112547 4.00608L14.7271 12.0178V23.8581" fill="url(#paint2_linear_3065_1774)"/>
<defs>
<linearGradient id="paint0_linear_3065_1774" x1="0.0809455" y1="12.0818" x2="29.561" y2="12.0818" gradientUnits="userSpaceOnUse">
<stop offset="1e-07" stop-color="#FFB900"/>
<stop offset="0.3376" stop-color="#F38000"/>
<stop offset="0.5673" stop-color="#F83C72"/>
<stop offset="0.78" stop-color="#FC1CBE"/>
<stop offset="0.93" stop-color="#FE08ED"/>
<stop offset="1" stop-color="#FF00FF"/>
</linearGradient>
<linearGradient id="paint1_linear_3065_1774" x1="14.7271" y1="24" x2="29.5606" y2="3.93621" gradientUnits="userSpaceOnUse">
<stop stop-color="#F01145"/>
<stop offset="1" stop-color="#F704D3"/>
</linearGradient>
<linearGradient id="paint2_linear_3065_1774" x1="11.5081" y1="16.8524" x2="39.7057" y2="-5.86236" gradientUnits="userSpaceOnUse">
<stop stop-color="#ED6600"/>
<stop offset="1" stop-color="#F98200"/>
</linearGradient>
</defs>
</svg>
