<svg width="24" height="24" viewBox="0 0 24 24" fill="none" xmlns="http://www.w3.org/2000/svg">
<path d="M19.9922 5.25781H16.7422V4.00781C16.7422 2.48781 15.5122 1.25781 13.9922 1.25781H9.99219C8.47219 1.25781 7.24219 2.48781 7.24219 4.00781V5.25781H3.99219C3.58219 5.25781 3.24219 5.59781 3.24219 6.00781C3.24219 6.41781 3.58219 6.75781 3.99219 6.75781H4.24219V19.0078C4.24219 21.0778 5.92219 22.7578 7.99219 22.7578H15.9922C18.0622 22.7578 19.7422 21.0778 19.7422 19.0078V6.75781H19.9922C20.4022 6.75781 20.7422 6.41781 20.7422 6.00781C20.7422 5.59781 20.4022 5.25781 19.9922 5.25781ZM8.74219 4.00781C8.74219 3.31781 9.30219 2.75781 9.99219 2.75781H13.9922C14.6822 2.75781 15.2422 3.31781 15.2422 4.00781V5.25781H8.74219V4.00781ZM18.2422 19.0078C18.2422 20.2478 17.2322 21.2578 15.9922 21.2578H7.99219C6.75219 21.2578 5.74219 20.2478 5.74219 19.0078V6.75781H18.2422V19.0078ZM10.7422 10.0078V18.0078C10.7422 18.4178 10.4022 18.7578 9.99219 18.7578C9.58219 18.7578 9.24219 18.4178 9.24219 18.0078V10.0078C9.24219 9.59781 9.58219 9.25781 9.99219 9.25781C10.4022 9.25781 10.7422 9.59781 10.7422 10.0078ZM14.7422 10.0078V18.0078C14.7422 18.4178 14.4022 18.7578 13.9922 18.7578C13.5822 18.7578 13.2422 18.4178 13.2422 18.0078V10.0078C13.2422 9.59781 13.5822 9.25781 13.9922 9.25781C14.4022 9.25781 14.7422 9.59781 14.7422 10.0078Z" fill="#E31B54"/>
</svg>
