<svg width="20" height="20" viewBox="0 0 20 20" fill="none" xmlns="http://www.w3.org/2000/svg">
<path d="M4.16675 8.33332H5.83341C7.50008 8.33332 8.33341 7.49999 8.33341 5.83332V4.16666C8.33341 2.49999 7.50008 1.66666 5.83341 1.66666H4.16675C2.50008 1.66666 1.66675 2.49999 1.66675 4.16666V5.83332C1.66675 7.49999 2.50008 8.33332 4.16675 8.33332Z" stroke="#98A2B3" stroke-width="1.25" stroke-miterlimit="10" stroke-linecap="round" stroke-linejoin="round"/>
<path d="M14.1667 8.33332H15.8334C17.5001 8.33332 18.3334 7.49999 18.3334 5.83332V4.16666C18.3334 2.49999 17.5001 1.66666 15.8334 1.66666H14.1667C12.5001 1.66666 11.6667 2.49999 11.6667 4.16666V5.83332C11.6667 7.49999 12.5001 8.33332 14.1667 8.33332Z" stroke="#98A2B3" stroke-width="1.25" stroke-miterlimit="10" stroke-linecap="round" stroke-linejoin="round"/>
<path d="M14.1667 18.3333H15.8334C17.5001 18.3333 18.3334 17.5 18.3334 15.8333V14.1667C18.3334 12.5 17.5001 11.6667 15.8334 11.6667H14.1667C12.5001 11.6667 11.6667 12.5 11.6667 14.1667V15.8333C11.6667 17.5 12.5001 18.3333 14.1667 18.3333Z" stroke="#98A2B3" stroke-width="1.25" stroke-miterlimit="10" stroke-linecap="round" stroke-linejoin="round"/>
<path d="M4.16675 18.3333H5.83341C7.50008 18.3333 8.33341 17.5 8.33341 15.8333V14.1667C8.33341 12.5 7.50008 11.6667 5.83341 11.6667H4.16675C2.50008 11.6667 1.66675 12.5 1.66675 14.1667V15.8333C1.66675 17.5 2.50008 18.3333 4.16675 18.3333Z" stroke="#98A2B3" stroke-width="1.25" stroke-miterlimit="10" stroke-linecap="round" stroke-linejoin="round"/>
</svg>
