<svg width="28" height="28" viewBox="0 0 28 28" fill="none" xmlns="http://www.w3.org/2000/svg">
<path d="M10.4999 25.6667H17.4999C23.3333 25.6667 25.6666 23.3333 25.6666 17.5V10.5C25.6666 4.66666 23.3333 2.33333 17.4999 2.33333H10.4999C4.66659 2.33333 2.33325 4.66666 2.33325 10.5V17.5C2.33325 23.3333 4.66659 25.6667 10.4999 25.6667Z" stroke="#344054" stroke-width="1.75" stroke-linecap="round" stroke-linejoin="round"/>
<path d="M18.0833 21.5833C19.3667 21.5833 20.4167 20.5333 20.4167 19.25V8.75001C20.4167 7.46667 19.3667 6.41667 18.0833 6.41667C16.8 6.41667 15.75 7.46667 15.75 8.75001V19.25C15.75 20.5333 16.7883 21.5833 18.0833 21.5833Z" stroke="#344054" stroke-width="1.75" stroke-linecap="round" stroke-linejoin="round"/>
<path d="M9.91659 21.5833C11.1999 21.5833 12.2499 20.5333 12.2499 19.25V15.1667C12.2499 13.8833 11.1999 12.8333 9.91659 12.8333C8.63325 12.8333 7.58325 13.8833 7.58325 15.1667V19.25C7.58325 20.5333 8.62159 21.5833 9.91659 21.5833Z" stroke="#344054" stroke-width="1.75" stroke-linecap="round" stroke-linejoin="round"/>
</svg>
