<svg width="20" height="20" viewBox="0 0 20 20" fill="none" xmlns="http://www.w3.org/2000/svg">
<path d="M7.58021 7.50521C7.77613 6.94827 8.16284 6.47863 8.67184 6.17949C9.18084 5.88034 9.77929 5.77099 10.3612 5.8708C10.9431 5.97061 11.4709 6.27315 11.8511 6.72482C12.2313 7.17649 12.4394 7.74814 12.4385 8.33854C12.4385 10.0052 9.93854 10.8385 9.93854 10.8385M10.0052 14.1719H10.0135M18.3385 10.0052C18.3385 14.6076 14.6076 18.3385 10.0052 18.3385C5.40284 18.3385 1.67188 14.6076 1.67188 10.0052C1.67188 5.40284 5.40284 1.67188 10.0052 1.67188C14.6076 1.67188 18.3385 5.40284 18.3385 10.0052Z" stroke="#98A2B3" stroke-width="1.25" stroke-linecap="round" stroke-linejoin="round"/>
</svg>
