<svg width="28" height="28" viewBox="0 0 28 28" fill="none" xmlns="http://www.w3.org/2000/svg">
<path d="M20.2767 12.1099V15.8782C20.2767 19.0165 19.0167 20.2765 15.8783 20.2765H12.11C8.97167 20.2765 7.71167 19.0165 7.71167 15.8782V12.1099C7.71167 8.97153 8.97167 7.7115 12.11 7.7115H15.8783C19.0283 7.72317 20.2767 8.97153 20.2767 12.1099Z" stroke="#004EEB" stroke-width="1.75" stroke-linecap="round" stroke-linejoin="round"/>
<path d="M25.6666 6.73165V10.5C25.6666 13.6383 24.4066 14.8983 21.2682 14.8983H20.2766V12.1217C20.2766 8.98334 19.0166 7.72333 15.8782 7.72333H13.1016V6.73165C13.1016 3.59332 14.3616 2.33333 17.4999 2.33333H21.2682C24.4066 2.33333 25.6666 3.59332 25.6666 6.73165Z" stroke="#004EEB" stroke-width="1.75" stroke-linecap="round" stroke-linejoin="round"/>
<path d="M2.33325 21.2683V17.5C2.33325 14.3617 3.59325 13.1017 6.73159 13.1017H7.72325V15.8783C7.72325 19.0167 8.98325 20.2767 12.1216 20.2767H14.8983V21.2683C14.8983 24.4067 13.6383 25.6667 10.4999 25.6667H6.73159C3.59325 25.6667 2.33325 24.4067 2.33325 21.2683Z" stroke="#004EEB" stroke-width="1.75" stroke-linecap="round" stroke-linejoin="round"/>
</svg>
