<svg width="28" height="28" viewBox="0 0 28 28" fill="none" xmlns="http://www.w3.org/2000/svg">
<path d="M18.6648 9.33333H20.0178C21.2314 9.33333 22.2423 10.2635 22.3431 11.4729L23.1209 20.8062C23.2343 22.1665 22.1607 23.3333 20.7956 23.3333H7.20068C5.83559 23.3333 4.76204 22.1665 4.87541 20.8062L5.65319 11.4729C5.75397 10.2635 6.76492 9.33333 7.97846 9.33333H9.33148M18.6648 9.33333H9.33148M18.6648 9.33333V8.16667C18.6648 6.92898 18.1732 5.74201 17.2979 4.86683C16.4228 3.99167 15.2359 3.5 13.9981 3.5C12.7604 3.5 11.5735 3.99167 10.6983 4.86683C9.82315 5.74201 9.33148 6.92898 9.33148 8.16667V9.33333M18.6648 9.33333V14M9.33148 9.33333V14" stroke="white" stroke-width="2" stroke-linecap="round" stroke-linejoin="round"/>
</svg>
