<svg width="28" height="28" viewBox="0 0 28 28" fill="none" xmlns="http://www.w3.org/2000/svg">
<path d="M24.5 11.6693H3.5M18.6667 2.33594V7.0026M9.33333 2.33594V7.0026M9.1 25.6693H18.9C20.8602 25.6693 21.8402 25.6693 22.589 25.2878C23.2476 24.9522 23.783 24.4169 24.1185 23.7583C24.5 23.0095 24.5 22.0295 24.5 20.0693V10.2693C24.5 8.30908 24.5 7.32899 24.1185 6.58031C23.783 5.92173 23.2476 5.3863 22.589 5.05075C21.8402 4.66927 20.8602 4.66927 18.9 4.66927H9.1C7.13981 4.66927 6.15972 4.66927 5.41103 5.05075C4.75246 5.3863 4.21703 5.92173 3.88148 6.58031C3.5 7.32899 3.5 8.30908 3.5 10.2693V20.0693C3.5 22.0295 3.5 23.0095 3.88148 23.7583C4.21703 24.4169 4.75246 24.9522 5.41103 25.2878C6.15972 25.6693 7.13981 25.6693 9.1 25.6693Z" stroke="#344054" stroke-width="1.75" stroke-linecap="round" stroke-linejoin="round"/>
</svg>
