<svg width="28" height="28" viewBox="0 0 28 28" fill="none" xmlns="http://www.w3.org/2000/svg">
<path d="M7.58359 8.04082C9.2885 6.33591 11.1927 5.02964 12.4807 4.23851C13.4194 3.66191 14.5811 3.66191 15.5198 4.23851C16.8078 5.02964 18.712 6.33591 20.417 8.04082C24.1133 11.7373 23.917 13.8742 23.917 17.3742C23.917 19.0189 23.7881 20.4061 23.6516 21.4146C23.5078 22.4755 22.5824 23.2075 21.5118 23.2075H19.8336C18.5449 23.2075 17.5003 22.1629 17.5003 20.8742V18.5408C17.5003 17.6125 17.1315 16.7223 16.4752 16.066C15.8188 15.4096 14.9285 15.0408 14.0003 15.0408C13.072 15.0408 12.1818 15.4096 11.5254 16.066C10.869 16.7223 10.5003 17.6125 10.5003 18.5408V20.8742C10.5003 22.1629 9.45559 23.2075 8.16692 23.2075H6.48874C5.41805 23.2075 4.49268 22.4755 4.34899 21.4144C4.21242 20.4061 4.0836 19.0189 4.0836 17.3742C4.0836 13.8742 3.88713 11.7373 7.58359 8.04082Z" stroke="#344054" stroke-width="1.75" stroke-linecap="round" stroke-linejoin="round"/>
</svg>
