<svg width="83" height="24" viewBox="0 0 83 24" fill="none" xmlns="http://www.w3.org/2000/svg">
<path d="M15.7405 8.66348C17.2901 9.77066 19.1885 10.4221 21.2389 10.4221V6.47861C20.8509 6.4787 20.4638 6.43825 20.0842 6.35786V9.46194C18.034 9.46194 16.1359 8.8105 14.5858 7.70341V15.7509C14.5858 19.7767 11.3206 23.04 7.29302 23.04C5.79024 23.04 4.39346 22.5859 3.23315 21.8071C4.55745 23.1605 6.40428 24 8.44748 24C12.4753 24 15.7407 20.7367 15.7407 16.7108V8.66348H15.7405ZM17.165 4.68499C16.373 3.82022 15.853 2.70267 15.7405 1.46716V0.959946H14.6462C14.9217 2.53027 15.8612 3.87186 17.165 4.68499ZM5.7806 18.7178C5.33812 18.138 5.09901 17.4286 5.10008 16.6993C5.10008 14.8581 6.59356 13.3652 8.43611 13.3652C8.7795 13.3651 9.12083 13.4176 9.44807 13.5214V9.48978C9.06564 9.4374 8.67967 9.41516 8.29386 9.42331V12.5613C7.96637 12.4575 7.62488 12.4048 7.28141 12.4052C5.43886 12.4052 3.94546 13.8979 3.94546 15.7394C3.94546 17.0414 4.69196 18.1687 5.7806 18.7178Z" fill="#FF004F"/>
<path d="M14.586 7.70333C16.136 8.81042 18.0342 9.46186 20.0844 9.46186V6.35778C18.94 6.11414 17.9268 5.5164 17.1651 4.68499C15.8612 3.87178 14.9218 2.53019 14.6464 0.959946H11.7721V16.7106C11.7656 18.5469 10.2747 20.0337 8.43611 20.0337C7.35265 20.0337 6.39011 19.5175 5.78051 18.7178C4.69195 18.1687 3.94546 17.0414 3.94546 15.7395C3.94546 13.8981 5.43886 12.4052 7.2814 12.4052C7.63443 12.4052 7.97469 12.4602 8.29386 12.5614V9.4234C4.33703 9.50511 1.15479 12.7365 1.15479 16.7107C1.15479 18.6946 1.94724 20.4931 3.2334 21.8072C4.3937 22.5859 5.79048 23.0401 7.29327 23.0401C11.3209 23.0401 14.586 19.7766 14.586 15.7509V7.70333H14.586Z" fill="black"/>
<path d="M20.0842 6.35774V5.51842C19.0522 5.51998 18.0405 5.23112 17.1649 4.68487C17.94 5.533 18.9606 6.1178 20.0842 6.35774ZM14.6462 0.959903C14.62 0.80983 14.5998 0.658769 14.5858 0.507132V-8.39233e-05H10.6172V15.7508C10.6108 17.5867 9.12 19.0736 7.28124 19.0736C6.74141 19.0736 6.23172 18.9455 5.78035 18.7179C6.38995 19.5174 7.35249 20.0335 8.43594 20.0335C10.2744 20.0335 11.7655 18.5469 11.772 16.7107V0.959903H14.6462ZM8.29386 9.42336V8.52984C7.96225 8.48454 7.62792 8.4618 7.29318 8.46197C3.26519 8.46189 0 11.7253 0 15.7508C0 18.2745 1.28328 20.4987 3.23331 21.807C1.94715 20.493 1.1547 18.6944 1.1547 16.7106C1.1547 12.7365 4.33687 9.50506 8.29386 9.42336Z" fill="#00F2EA"/>
<path d="M66.0687 19.7399C68.9506 19.7399 71.2869 17.4225 71.2869 14.564C71.2869 11.7056 68.9506 9.38773 66.0687 9.38773H65.2825C68.1645 9.38773 70.5008 11.7055 70.5008 14.564C70.5008 17.4225 68.1645 19.7399 65.2825 19.7399H66.0687Z" fill="#FF004F"/>
<path d="M65.2113 9.38773H64.4251C61.5433 9.38773 59.2065 11.7055 59.2065 14.564C59.2065 17.4225 61.5433 19.7399 64.4251 19.7399H65.2113C62.329 19.7399 59.9926 17.4225 59.9926 14.564C59.9926 11.7056 62.329 9.38773 65.2113 9.38773Z" fill="#00F2EA"/>
<path d="M25.5388 7.04826V9.6719H28.612V19.6691H31.6864V9.74273H34.1881L35.0459 7.04835L25.5388 7.04826ZM50.7004 7.04826V9.6719H53.7736V19.6691H56.8481V9.74273H59.3496L60.2073 7.04835L50.7004 7.04826ZM35.6182 8.53713C35.6182 7.71502 36.2892 7.04826 37.1181 7.04826C37.9478 7.04826 38.6195 7.71502 38.6195 8.53713C38.6195 9.35932 37.9482 10.0261 37.1181 10.0261C36.2892 10.0257 35.6182 9.35932 35.6182 8.53713ZM35.6182 11.0899H38.6195V19.6691H35.6182V11.0899ZM39.9064 7.04826V19.669H42.9089V16.4078L43.8382 15.5562L46.7686 19.7399H49.985L45.7672 13.6422L49.5559 9.95483H45.9105L42.9089 12.9326V7.04826H39.9064ZM72.2871 7.04826V19.669H75.2899V16.4078L76.2189 15.5562L79.1501 19.7399H82.3669L78.1491 13.6422L81.9376 9.95483H78.2924L75.2899 12.9326V7.04826H72.2871Z" fill="black"/>
<path d="M65.2823 19.7399C68.1641 19.7399 70.5009 17.4225 70.5009 14.564C70.5009 11.7056 68.1641 9.38773 65.2823 9.38773H65.211C62.329 9.38773 59.9927 11.7055 59.9927 14.564C59.9927 17.4225 62.329 19.7399 65.211 19.7399H65.2823ZM62.709 14.564C62.709 13.1736 63.8456 12.0473 65.2473 12.0473C66.6479 12.0473 67.7845 13.1736 67.7845 14.564C67.7845 15.9544 66.6479 17.0814 65.2473 17.0814C63.8456 17.0811 62.709 15.9544 62.709 14.564Z" fill="black"/>
</svg>
