<svg width="76" height="24" viewBox="0 0 76 24" fill="none" xmlns="http://www.w3.org/2000/svg">
<path fill-rule="evenodd" clip-rule="evenodd" d="M69.7764 15.4201C70.0528 14.4712 70.9212 13.8781 71.908 13.8781C72.8554 13.8781 73.7633 14.5107 74.0791 15.4201L74.1185 15.4992H69.737L69.7764 15.4201ZM75.1054 16.7644C75.1449 16.7644 75.1449 16.7644 75.1054 16.7644C75.3422 16.7644 75.5001 16.5667 75.5001 16.369C75.5001 16.369 75.5001 16.369 75.5001 16.3295C75.5001 16.3295 75.5001 16.3295 75.5001 16.29C75.5001 14.2339 73.8817 12.5733 71.908 12.5733C69.9343 12.5733 68.3159 14.2339 68.3159 16.29C68.3159 16.4481 68.3159 16.6063 68.3554 16.7644V16.804C68.4738 17.5552 68.7501 18.2273 69.2633 18.7809C69.8159 19.374 70.5659 19.8089 71.3949 19.9671H71.4343C71.4738 19.9671 71.4738 19.9671 71.5133 19.9671C72.6185 20.0857 73.5659 19.9275 74.3949 19.5321C74.5922 19.4135 74.7896 19.3344 74.9475 19.2158C74.987 19.1763 75.0264 19.1367 75.0659 19.0972C75.1054 19.0972 75.1054 19.0577 75.1054 19.0577C75.3028 18.86 75.3028 18.7809 75.1843 18.6227C75.0659 18.425 74.9475 18.2669 74.8686 18.1087C74.8291 18.0692 74.7896 18.0297 74.7896 17.9901C74.7896 17.9901 74.7896 17.9901 74.7501 17.9506C74.6317 17.832 74.5922 17.832 74.4738 17.911L74.4343 17.9506C73.6449 18.6623 72.5791 18.86 71.4738 18.6623C71.2764 18.6227 71.0791 18.5437 70.9212 18.4646C70.2501 18.1087 69.7764 17.5157 69.6185 16.8435V16.804L75.1054 16.7644Z" fill="#EE4D2D"/>
<path fill-rule="evenodd" clip-rule="evenodd" d="M61.2501 15.4201C61.5264 14.4712 62.3948 13.8781 63.3817 13.8781C64.329 13.8781 65.2369 14.5107 65.5527 15.4201L65.5922 15.4992H61.2106L61.2501 15.4201ZM66.579 16.7644C66.8159 16.7644 66.9738 16.5667 66.9738 16.369C66.9738 16.369 66.9738 16.369 66.9738 16.3295C66.9738 16.3295 66.9738 16.3295 66.9738 16.29C66.9738 14.2339 65.3553 12.5733 63.3817 12.5733C61.408 12.5733 59.7896 14.2339 59.7896 16.29C59.7896 16.4481 59.7895 16.6063 59.829 16.7644V16.804C59.9474 17.5552 60.2238 18.2273 60.7369 18.7809C61.2895 19.374 62.0395 19.8089 62.8685 19.9671H62.908C62.9474 19.9671 62.9474 19.9671 62.9869 19.9671C64.0922 20.0857 65.0395 19.9275 65.8685 19.5321C66.0659 19.4135 66.2632 19.3344 66.4211 19.2158C66.4606 19.1763 66.5001 19.1367 66.5395 19.0972C66.579 19.0972 66.579 19.0577 66.579 19.0577C66.7764 18.86 66.7764 18.7809 66.658 18.6227C66.5395 18.425 66.4211 18.2669 66.3422 18.1087C66.3027 18.0692 66.2632 18.0297 66.2632 17.9901C66.2632 17.9901 66.2632 17.9901 66.2238 17.9506C66.1053 17.832 66.0659 17.832 65.9474 17.911L65.908 17.9506C65.1185 18.6623 64.0527 18.86 62.9474 18.6623C62.7501 18.6227 62.5527 18.5437 62.3948 18.4646C61.7238 18.1087 61.2501 17.5157 61.0922 16.8435V16.804L66.579 16.7644Z" fill="#EE4D2D"/>
<path fill-rule="evenodd" clip-rule="evenodd" d="M54.7367 18.8204C53.3946 18.8204 52.3289 17.7529 52.2894 16.4481V16.3295C52.3289 14.9852 53.4341 13.9572 54.7367 13.9572C56.0788 13.9572 57.1841 15.0643 57.1841 16.4086C57.1841 17.7133 56.0788 18.8204 54.7367 18.8204ZM54.7367 12.6129C53.8683 12.6129 53.0394 12.9292 52.3683 13.4432L52.2894 13.5222V12.8501C52.2894 12.6524 52.2499 12.6129 52.0525 12.6129H51.1841C50.9867 12.6129 50.9473 12.6524 50.9473 12.8501V23.7628C50.9473 23.9605 50.9867 24 51.1841 24H52.0525C52.2499 24 52.2894 23.9605 52.2894 23.7628V19.2158L52.3683 19.2949C53.0394 19.8484 53.8683 20.1252 54.7367 20.1252C56.8288 20.1252 58.4867 18.4646 58.4867 16.369C58.4867 14.313 56.7894 12.6129 54.7367 12.6129Z" fill="#EE4D2D"/>
<path fill-rule="evenodd" clip-rule="evenodd" d="M45.8947 18.7414C44.5526 18.7414 43.4473 17.6738 43.4473 16.3295C43.4473 14.9852 44.5526 13.9176 45.8947 13.9176C47.2368 13.9176 48.3421 14.9852 48.3421 16.3295C48.3421 17.6343 47.2368 18.7414 45.8947 18.7414ZM45.8947 12.5733C43.8026 12.5733 42.1052 14.2339 42.1052 16.29C42.1052 18.346 43.8026 20.0066 45.8947 20.0066C47.9868 20.0066 49.6842 18.346 49.6842 16.29C49.6447 14.2735 47.9473 12.5733 45.8947 12.5733Z" fill="#EE4D2D"/>
<path fill-rule="evenodd" clip-rule="evenodd" d="M37.4474 12.6524C36.6974 12.6524 35.9474 12.8896 35.3553 13.3641L35.2764 13.4036V8.34267C35.2764 8.18452 35.2369 8.10544 35.0395 8.10544H34.1316C33.9343 8.10544 33.8948 8.14498 33.8948 8.34267V19.9275C33.8948 20.0857 33.9343 20.1647 34.1316 20.1647H35.0395C35.1974 20.1647 35.2764 20.1252 35.2764 19.9275V16.1318C35.2764 14.9456 36.2632 13.9967 37.4474 13.9967C38.6316 13.9967 39.6185 14.9456 39.6185 16.1713V19.9275C39.6185 20.1252 39.6579 20.1647 39.8553 20.1647H40.7632C40.9606 20.1647 41 20.1252 41 19.9275V16.1318C41 14.2339 39.3816 12.6524 37.4474 12.6524Z" fill="#EE4D2D"/>
<path fill-rule="evenodd" clip-rule="evenodd" d="M24.9342 18.0692C24.8158 18.2669 24.7368 18.346 24.7368 18.3855C24.6184 18.5437 24.6579 18.6227 24.8158 18.7414C25.171 19.0181 25.6447 19.3344 25.9605 19.4926C26.8289 19.9275 27.7763 20.1252 28.7631 20.1647C29.3947 20.2043 30.2237 20.0461 30.8158 19.7694C31.921 19.2949 32.5921 18.346 32.7105 17.1598C32.9079 15.2619 31.6842 14.0758 28.5263 13.1269C27.0658 12.6524 26.3552 12.0198 26.3552 11.1499C26.3947 10.1615 27.3026 9.44976 28.5263 9.41022C29.5131 9.41022 30.3816 9.68699 31.25 10.2405C31.4474 10.3591 31.5263 10.3196 31.6447 10.1615C31.6447 10.1219 31.6842 10.0824 31.8421 9.84514C32 9.60791 32.0395 9.56837 32.0395 9.52883C32.1579 9.33114 32.1184 9.25206 31.9605 9.13345C31.7631 9.01483 31.25 8.73806 30.9737 8.61944C30.1447 8.30313 29.3158 8.14498 28.4868 8.14498C26.5921 8.18452 25.0921 9.41022 25.0131 11.0708C24.9342 12.257 25.5658 13.2059 26.7895 13.8781C27.1447 14.0758 28.4079 14.5502 29 14.7084C30.6973 15.2224 31.5658 16.1318 31.4079 17.1993C31.25 18.1878 30.2237 18.8204 28.8026 18.86C27.7763 18.8204 26.7105 18.4646 25.8026 17.7529C25.8026 17.7529 25.7631 17.7133 25.7237 17.7133C25.6447 17.6738 25.6447 17.6738 25.6447 17.6738C25.4473 17.5552 25.3684 17.5552 25.25 17.7133C25.1316 17.7133 25.0131 17.9506 24.9342 18.0692Z" fill="#EE4D2D"/>
<path fill-rule="evenodd" clip-rule="evenodd" d="M14.1974 16.9226C14.0789 18.0297 13.4079 18.8995 12.3816 19.3344C11.8289 19.5717 11.0395 19.6903 10.4474 19.6507C9.5 19.6112 8.63158 19.374 7.80263 18.9786C7.52632 18.8204 7.09211 18.5437 6.73684 18.2669C6.6579 18.1878 6.65789 18.1483 6.69737 18.0692C6.73684 18.0297 6.77632 17.9506 6.89474 17.7529C7.09211 17.4761 7.09211 17.4761 7.13158 17.4366C7.17105 17.3575 7.28947 17.3575 7.36842 17.397C7.36842 17.397 7.36842 17.397 7.4079 17.4366C7.44737 17.4761 7.44737 17.4761 7.48684 17.4761C8.35526 18.1483 9.38158 18.5437 10.4079 18.6227C11.8289 18.6227 12.8947 17.9506 13.0526 16.9621C13.25 15.855 12.3816 14.9061 10.7237 14.3921C10.2105 14.2339 8.86842 13.6804 8.63158 13.5618C7.48684 12.8896 6.93421 12.0198 7.01316 10.9127C7.13158 9.41022 8.55263 8.26359 10.2895 8.26359C11.0789 8.26359 11.8684 8.42175 12.6184 8.73806C12.8947 8.85667 13.3684 9.0939 13.5263 9.25206C13.6053 9.33114 13.6447 9.41021 13.6053 9.48929C13.5658 9.52883 13.5263 9.60791 13.4079 9.8056C13.25 10.0428 13.25 10.0428 13.25 10.0824C13.2105 10.1614 13.1316 10.1615 13.0132 10.1219C12.1842 9.56837 11.3158 9.2916 10.2895 9.2916C9.06579 9.33113 8.11842 10.0428 8.07895 11.0708C8.07895 11.9802 8.75 12.6524 10.2105 13.1269C13.2895 14.0362 14.4342 15.1433 14.1974 16.9226ZM10.5263 1.30478C12.4605 1.30478 14.0395 3.1631 14.1184 5.45634H6.93421C7.01316 3.12356 8.5921 1.30478 10.5263 1.30478ZM20.5526 5.89127C20.5526 5.65404 20.3553 5.45634 20.1184 5.45634H15.4605C15.3421 2.41186 13.1711 0 10.5263 0C7.88158 0 5.71053 2.41186 5.59211 5.45634H0.934211C0.697369 5.45634 0.5 5.65404 0.5 5.89127V5.93081L1.17105 20.5997C1.17105 20.6392 1.17105 20.6787 1.17105 20.7183C1.17105 20.7183 1.17105 20.7183 1.17105 20.7578V20.7974C1.28947 21.8254 2 22.6557 3.02632 22.6952H17.7895C17.7895 22.6952 17.7895 22.6952 17.8289 22.6952C17.8289 22.6952 17.8289 22.6952 17.8684 22.6952H17.9079C18.9342 22.6557 19.7632 21.8254 19.8421 20.7974V20.7578C19.8421 20.7183 19.8421 20.7183 19.8421 20.6787L20.5526 5.89127Z" fill="#EE4D2D"/>
</svg>
