<svg width="28" height="28" viewBox="0 0 28 28" fill="none" xmlns="http://www.w3.org/2000/svg">
<rect width="28" height="28" transform="translate(0.000244141)" fill="white"/>
<path d="M16.0197 4.09517L18.073 8.20184C18.353 8.7735 19.0997 9.32184 19.7297 9.42684L23.4514 10.0452C25.8314 10.4418 26.3914 12.1685 24.6764 13.8718L21.783 16.7651C21.293 17.2551 21.0247 18.2001 21.1764 18.8768L22.0047 22.4585C22.658 25.2935 21.153 26.3901 18.6447 24.9085L15.1564 22.8435C14.5264 22.4701 13.488 22.4701 12.8464 22.8435L9.35803 24.9085C6.86136 26.3901 5.34469 25.2818 5.99803 22.4585L6.82636 18.8768C6.97803 18.2001 6.70969 17.2551 6.21969 16.7651L3.32636 13.8718C1.62303 12.1685 2.17136 10.4418 4.55136 10.0452L8.27303 9.42684C8.89136 9.32184 9.63803 8.7735 9.91803 8.20184L11.9714 4.09517C13.0914 1.86684 14.9114 1.86684 16.0197 4.09517Z" fill="#EFF4FF" stroke="url(#paint0_linear_3023_16521)" stroke-width="1.75" stroke-linecap="round" stroke-linejoin="round"/>
<defs>
<linearGradient id="paint0_linear_3023_16521" x1="7.91222" y1="27.1546" x2="13.9099" y2="2.40115" gradientUnits="userSpaceOnUse">
<stop stop-color="#155EEF"/>
<stop offset="1" stop-color="#528BFF"/>
</linearGradient>
</defs>
</svg>
