<svg width="29" height="28" viewBox="0 0 29 28" fill="none" xmlns="http://www.w3.org/2000/svg">
<path d="M10.8334 25.6667H17.8334C23.6667 25.6667 26.0001 23.3333 26.0001 17.5V10.5C26.0001 4.66668 23.6667 2.33334 17.8334 2.33334H10.8334C5.00008 2.33334 2.66675 4.66668 2.66675 10.5V17.5C2.66675 23.3333 5.00008 25.6667 10.8334 25.6667Z" fill="#EFF4FF"/>
<path fill-rule="evenodd" clip-rule="evenodd" d="M3.94386 3.61046C5.50074 2.05358 7.83045 1.45834 10.8334 1.45834H17.8334C20.8364 1.45834 23.1661 2.05358 24.723 3.61046C26.2798 5.16734 26.8751 7.49704 26.8751 10.5V17.5C26.8751 20.503 26.2798 22.8327 24.723 24.3896C23.1661 25.9464 20.8364 26.5417 17.8334 26.5417H10.8334C7.83045 26.5417 5.50074 25.9464 3.94386 24.3896C2.38698 22.8327 1.79175 20.503 1.79175 17.5V10.5C1.79175 7.49704 2.38698 5.16734 3.94386 3.61046ZM5.1813 4.8479C4.11318 5.91602 3.54175 7.66964 3.54175 10.5V17.5C3.54175 20.3304 4.11318 22.084 5.1813 23.1521C6.24942 24.2202 8.00305 24.7917 10.8334 24.7917H17.8334C20.6638 24.7917 22.4174 24.2202 23.4855 23.1521C24.5537 22.084 25.1251 20.3304 25.1251 17.5V10.5C25.1251 7.66964 24.5537 5.91602 23.4855 4.8479C22.4174 3.77978 20.6638 3.20834 17.8334 3.20834H10.8334C8.00305 3.20834 6.24942 3.77978 5.1813 4.8479Z" fill="url(#paint0_linear_3023_16500)"/>
<path fill-rule="evenodd" clip-rule="evenodd" d="M8.35994 17.8851C8.84319 17.8851 9.23494 18.2769 9.23494 18.7601V21.1751C9.23494 21.6584 8.84319 22.0501 8.35994 22.0501C7.87669 22.0501 7.48494 21.6584 7.48494 21.1751V18.7601C7.48494 18.2769 7.87669 17.8851 8.35994 17.8851Z" fill="url(#paint1_linear_3023_16500)"/>
<path fill-rule="evenodd" clip-rule="evenodd" d="M14.3334 15.4698C14.8167 15.4698 15.2084 15.8615 15.2084 16.3448V21.1748C15.2084 21.658 14.8167 22.0498 14.3334 22.0498C13.8502 22.0498 13.4584 21.658 13.4584 21.1748V16.3448C13.4584 15.8615 13.8502 15.4698 14.3334 15.4698Z" fill="url(#paint2_linear_3023_16500)"/>
<path fill-rule="evenodd" clip-rule="evenodd" d="M20.3069 13.0436C20.7901 13.0436 21.1819 13.4353 21.1819 13.9186V21.1752C21.1819 21.6585 20.7901 22.0502 20.3069 22.0502C19.8236 22.0502 19.4319 21.6585 19.4319 21.1752V13.9186C19.4319 13.4353 19.8236 13.0436 20.3069 13.0436Z" fill="url(#paint3_linear_3023_16500)"/>
<path d="M20.3445 5.95035C20.8104 5.96989 21.1822 6.35381 21.1822 6.82456V10.2312C21.1822 10.7145 20.7904 11.1062 20.3072 11.1062C19.8239 11.1062 19.4322 10.7145 19.4322 10.2312V9.12066C16.4699 12.1578 12.7102 14.3183 8.57163 15.3502C8.10273 15.4671 7.62784 15.1818 7.51093 14.7129C7.39401 14.244 7.67935 13.7691 8.14824 13.6522C12.0617 12.6764 15.6073 10.6086 18.3712 7.69956H16.8889C16.4056 7.69956 16.0139 7.30781 16.0139 6.82456C16.0139 6.34132 16.4056 5.94956 16.8889 5.94956H20.3072C20.3197 5.94956 20.3321 5.94983 20.3445 5.95035Z" fill="url(#paint4_linear_3023_16500)"/>
<defs>
<linearGradient id="paint0_linear_3023_16500" x1="7.78559" y1="28.2606" x2="14.3334" y2="1.45834" gradientUnits="userSpaceOnUse">
<stop stop-color="#155EEF"/>
<stop offset="1" stop-color="#528BFF"/>
</linearGradient>
<linearGradient id="paint1_linear_3023_16500" x1="7.78559" y1="28.2606" x2="14.3334" y2="1.45834" gradientUnits="userSpaceOnUse">
<stop stop-color="#155EEF"/>
<stop offset="1" stop-color="#528BFF"/>
</linearGradient>
<linearGradient id="paint2_linear_3023_16500" x1="7.78559" y1="28.2606" x2="14.3334" y2="1.45834" gradientUnits="userSpaceOnUse">
<stop stop-color="#155EEF"/>
<stop offset="1" stop-color="#528BFF"/>
</linearGradient>
<linearGradient id="paint3_linear_3023_16500" x1="7.78559" y1="28.2606" x2="14.3334" y2="1.45834" gradientUnits="userSpaceOnUse">
<stop stop-color="#155EEF"/>
<stop offset="1" stop-color="#528BFF"/>
</linearGradient>
<linearGradient id="paint4_linear_3023_16500" x1="7.78559" y1="28.2606" x2="14.3334" y2="1.45834" gradientUnits="userSpaceOnUse">
<stop stop-color="#155EEF"/>
<stop offset="1" stop-color="#528BFF"/>
</linearGradient>
</defs>
</svg>
