<svg width="29" height="28" viewBox="0 0 29 28" fill="none" xmlns="http://www.w3.org/2000/svg">
<path d="M13.2081 16.4617V19.67C13.2081 21.6767 11.3415 23.1 9.04314 23.1C6.74481 23.1 4.86646 21.665 4.86646 19.67V16.4617C4.86646 14.455 6.73314 12.8333 9.04314 12.8333C10.1981 12.8333 11.2365 13.2417 11.9948 13.895C12.7416 14.5483 13.2081 15.4583 13.2081 16.4617Z" fill="#EFF4FF" stroke="url(#paint0_linear_3023_16477)" stroke-width="1.75" stroke-linecap="round" stroke-linejoin="round"/>
<path d="M12.7649 18.048C13.0449 17.5813 13.2083 17.0447 13.2083 16.4613C13.2083 15.458 12.7416 14.548 11.9716 13.9063C11.2133 13.253 10.1749 12.8448 9.01992 12.8448C7.86492 12.8448 6.82662 13.2413 6.06829 13.9063C5.32162 14.5597 4.85498 15.458 4.85498 16.4613C4.85498 17.0447 5.01826 17.5813 5.29826 18.048C5.98659 19.168 7.39827 19.8913 9.0316 19.8913C10.6649 19.8913 12.0766 19.1797 12.7649 18.048Z" fill="url(#paint1_linear_3023_16477)"/>
<path d="M13.208 22.0382V19.6699C13.208 21.6649 11.3414 23.0999 9.04307 23.0999C6.73307 23.0999 4.86638 21.6766 4.86638 19.6699V22.0382C4.86638 24.0449 6.74474 25.6666 9.04307 25.6666C11.3414 25.6666 13.208 24.0449 13.208 22.0382Z" fill="url(#paint2_linear_3023_16477)"/>
<path d="M12.7649 18.048C13.0449 17.5813 13.2083 17.0447 13.2083 16.4613C13.2083 15.458 12.7416 14.548 11.9716 13.9063C11.2133 13.253 10.1749 12.8448 9.01992 12.8448C7.86492 12.8448 6.82662 13.2413 6.06829 13.9063C5.32162 14.5597 4.85498 15.458 4.85498 16.4613C4.85498 17.0447 5.01826 17.5813 5.29826 18.048C5.98659 19.168 7.39827 19.8913 9.0316 19.8913C10.6649 19.8913 12.0766 19.1797 12.7649 18.048Z" stroke="url(#paint3_linear_3023_16477)" stroke-width="1.75" stroke-linecap="round" stroke-linejoin="round"/>
<path d="M13.208 22.0382V19.6699C13.208 21.6649 11.3414 23.0999 9.04307 23.0999C6.73307 23.0999 4.86638 21.6766 4.86638 19.6699V22.0382C4.86638 24.0449 6.74474 25.6666 9.04307 25.6666C11.3414 25.6666 13.208 24.0449 13.208 22.0382Z" stroke="url(#paint4_linear_3023_16477)" stroke-width="1.75" stroke-linecap="round" stroke-linejoin="round"/>
<path d="M26.3336 12.7986V15.2019C26.3336 15.8436 25.8203 16.3686 25.1669 16.3919H22.8803C21.6203 16.3919 20.4653 15.4702 20.3603 14.2102C20.2903 13.4752 20.5703 12.7869 21.0603 12.3086C21.4919 11.8652 22.0869 11.6086 22.7403 11.6086H25.1669C25.8203 11.6319 26.3336 12.1569 26.3336 12.7986Z" fill="url(#paint5_linear_3023_16477)"/>
<path fill-rule="evenodd" clip-rule="evenodd" d="M8.02138 5.01817C8.27797 4.97869 8.54838 4.95834 8.83333 4.95834H19.3333C19.6186 4.95834 19.8546 4.96978 20.0645 5.00476C20.0787 5.00713 20.093 5.00915 20.1073 5.01081C21.416 5.16299 22.4473 5.7146 23.1538 6.53334C23.862 7.35394 24.2917 8.49883 24.2917 9.91668V10.7334H22.74C21.856 10.7334 21.0377 11.0812 20.4408 11.69C19.7773 12.3423 19.3943 13.2819 19.4884 14.2878C19.5531 15.0494 19.8835 15.7055 20.3695 16.2066C21.017 16.8744 21.9407 17.2669 22.8802 17.2669H24.2917V18.0833C24.2917 19.6345 23.7784 20.8591 22.9438 21.6938C22.1091 22.5284 20.8845 23.0417 19.3333 23.0417H16.4167C15.9334 23.0417 15.5417 23.4334 15.5417 23.9167C15.5417 24.3999 15.9334 24.7917 16.4167 24.7917H19.3333C21.2822 24.7917 22.9742 24.1382 24.1812 22.9312C25.3882 21.7242 26.0417 20.0322 26.0417 18.0833V17.0571C26.7311 16.7223 27.2086 16.0219 27.2086 15.2019V12.7986C27.2086 11.9786 26.7311 11.2782 26.0417 10.9434V9.91668C26.0417 8.13786 25.4972 6.57025 24.4787 5.39001C23.4627 4.21273 22.0225 3.47638 20.3302 3.27497C19.9876 3.21972 19.648 3.20834 19.3333 3.20834H8.83333C8.4692 3.20834 8.11364 3.23406 7.76738 3.28667C6.08947 3.4999 4.66526 4.24107 3.66261 5.41741C2.65937 6.59446 2.125 8.15167 2.125 9.91668V12.25C2.125 12.7333 2.51675 13.125 3 13.125C3.48325 13.125 3.875 12.7333 3.875 12.25V9.91668C3.875 8.50835 4.2973 7.37056 4.99447 6.55261C5.68985 5.73676 6.7054 5.18365 7.99728 5.02153C8.00533 5.02052 8.01337 5.0194 8.02138 5.01817ZM21.6033 14.9611C21.6251 14.9852 21.6478 15.0086 21.6712 15.0315C21.9725 15.3257 22.4021 15.5167 22.88 15.5167H25.1502C25.3368 15.503 25.4586 15.3563 25.4586 15.2019V12.7986C25.4586 12.6432 25.3353 12.4957 25.1468 12.4836H22.7402C22.3214 12.4836 21.9529 12.646 21.6871 12.919L21.6715 12.9347C21.361 13.2377 21.1877 13.6691 21.2313 14.1273L21.2323 14.1376C21.2576 14.4417 21.3925 14.7286 21.6033 14.9611Z" fill="url(#paint6_linear_3023_16477)"/>
<defs>
<linearGradient id="paint0_linear_3023_16477" x1="6.85975" y1="23.8036" x2="10.0653" y2="13.1425" gradientUnits="userSpaceOnUse">
<stop stop-color="#155EEF"/>
<stop offset="1" stop-color="#528BFF"/>
</linearGradient>
<linearGradient id="paint1_linear_3023_16477" x1="9.03162" y1="25.6666" x2="9.03162" y2="12.8448" gradientUnits="userSpaceOnUse">
<stop stop-color="#DAE2F7"/>
<stop offset="1" stop-color="#EFF5FF"/>
</linearGradient>
<linearGradient id="paint2_linear_3023_16477" x1="9.03162" y1="25.6666" x2="9.03162" y2="12.8448" gradientUnits="userSpaceOnUse">
<stop stop-color="#DAE2F7"/>
<stop offset="1" stop-color="#EFF5FF"/>
</linearGradient>
<linearGradient id="paint3_linear_3023_16477" x1="6.85106" y1="26.5452" x2="11.624" y2="13.8169" gradientUnits="userSpaceOnUse">
<stop stop-color="#155EEF"/>
<stop offset="1" stop-color="#528BFF"/>
</linearGradient>
<linearGradient id="paint4_linear_3023_16477" x1="6.85106" y1="26.5452" x2="11.624" y2="13.8169" gradientUnits="userSpaceOnUse">
<stop stop-color="#155EEF"/>
<stop offset="1" stop-color="#528BFF"/>
</linearGradient>
<linearGradient id="paint5_linear_3023_16477" x1="23.3416" y1="16.3919" x2="23.3416" y2="11.6086" gradientUnits="userSpaceOnUse">
<stop stop-color="#DAE2F7"/>
<stop offset="1" stop-color="#EFF5FF"/>
</linearGradient>
<linearGradient id="paint6_linear_3023_16477" x1="8.1189" y1="26.2708" x2="13.0388" y2="2.86612" gradientUnits="userSpaceOnUse">
<stop stop-color="#155EEF"/>
<stop offset="1" stop-color="#528BFF"/>
</linearGradient>
</defs>
</svg>
